<svg width="655" height="832" viewBox="0 0 655 832" fill="none" xmlns="http://www.w3.org/2000/svg">
<circle cx="349" cy="184" r="141" fill="#FFE0BD"/>
<path d="M380.085 382.428L412.212 304H359.405L321 396.966L434 405L380.085 382.428Z" fill="#FFE0BD"/>
<path d="M491.244 431L416.244 398L379.744 384C357.744 385.667 306.444 402.3 277.244 455.5C240.744 522 264.744 600 264.744 805C412.344 853.4 487.578 825.167 506.744 805C531.944 763 538.244 537 491.244 431Z" fill="url(#paint0_linear)"/>
<path d="M304 515C280.4 483 305.833 469 321.5 466H336.5L472.5 528.5C520.9 557.7 515.5 528.5 532.5 522.5L612 438.5L628 454.5L565 541.5C515.922 611.326 498.089 605.032 464.253 593.089L464 593L304 515Z" fill="url(#paint1_linear)"/>
<path d="M628.5 453.5L612.5 437.5L628.5 411C641.3 394.2 651.167 414 654.5 426L628.5 453.5Z" fill="#FFE0BD"/>
<path d="M519.597 72.0147C543.197 124.815 500.598 160.015 434.098 174.515H415.598C379.598 190.515 344.298 198.815 355.098 250.015C368.598 314.015 367.598 418.515 341.598 460.515C315.598 502.515 315.598 577.015 396.098 652.515C460.498 712.915 381.598 756.015 334.098 770.015C127.098 831.025 56.3975 728.915 15.5975 662.515C-25.2025 596.115 23.5975 544.848 53.0975 527.515C97.9308 472.681 178.197 334.215 140.597 219.015C102.997 103.815 212.597 30.6814 272.097 8.51472C341.598 -17.3775 495.997 19.2147 519.597 72.0147Z" fill="url(#paint2_linear)"/>
<defs>
<linearGradient id="paint0_linear" x1="426.5" y1="820" x2="392" y2="412.5" gradientUnits="userSpaceOnUse">
<stop stop-color="#F37063"/>
<stop offset="1" stop-color="#EC0D89"/>
</linearGradient>
<linearGradient id="paint1_linear" x1="605.5" y1="463.5" x2="349" y2="520" gradientUnits="userSpaceOnUse">
<stop stop-color="#F37063"/>
<stop offset="1" stop-color="#EC0D89"/>
</linearGradient>
<linearGradient id="paint2_linear" x1="153.598" y1="69.5148" x2="271.598" y2="624.015" gradientUnits="userSpaceOnUse">
<stop stop-color="#76469F"/>
<stop offset="1" stop-color="#6979BB"/>
</linearGradient>
</defs>
</svg>
